<mxfile host="Electron" modified="2025-07-03T15:22:20.492Z" agent="Mozilla/5.0 (Windows NT 10.0; Win64; x64) AppleWebKit/537.36 (KHTML, like Gecko) draw.io/22.0.3 Chrome/114.0.5735.289 Electron/25.8.4 Safari/537.36" etag="tzg_dbC-mokLne-SaImL" version="22.0.3" type="device">
  <diagram id="R2lEEEUBdFMjLlhIrx00" name="ERD">
    <mxGraphModel dx="2085" dy="1831" grid="1" gridSize="10" guides="1" tooltips="1" connect="1" arrows="1" fold="1" page="1" pageScale="1" pageWidth="850" pageHeight="1100" math="0" shadow="0" extFonts="Permanent Marker^https://fonts.googleapis.com/css?family=Permanent+Marker">
      <root>
        <mxCell id="0" />
        <mxCell id="1" parent="0" />
        <mxCell id="zIOux4XEpl3hAwyCnQDO-1" value="Adopsi" style="rounded=0;whiteSpace=wrap;html=1;" vertex="1" parent="1">
          <mxGeometry x="190" y="150" width="120" height="60" as="geometry" />
        </mxCell>
        <mxCell id="zIOux4XEpl3hAwyCnQDO-2" value="&lt;u&gt;id_adopsi&lt;/u&gt;" style="ellipse;whiteSpace=wrap;html=1;" vertex="1" parent="1">
          <mxGeometry x="40" y="40" width="90" height="60" as="geometry" />
        </mxCell>
        <mxCell id="zIOux4XEpl3hAwyCnQDO-3" value="id_adopter" style="ellipse;whiteSpace=wrap;html=1;" vertex="1" parent="1">
          <mxGeometry x="30" y="103" width="90" height="60" as="geometry" />
        </mxCell>
        <mxCell id="zIOux4XEpl3hAwyCnQDO-4" value="id_hewan" style="ellipse;whiteSpace=wrap;html=1;" vertex="1" parent="1">
          <mxGeometry x="20" y="170" width="90" height="60" as="geometry" />
        </mxCell>
        <mxCell id="zIOux4XEpl3hAwyCnQDO-5" value="tanggal_pengajuan" style="ellipse;whiteSpace=wrap;html=1;" vertex="1" parent="1">
          <mxGeometry x="25" y="240" width="110" height="60" as="geometry" />
        </mxCell>
        <mxCell id="zIOux4XEpl3hAwyCnQDO-6" value="status_pengajuan" style="ellipse;whiteSpace=wrap;html=1;" vertex="1" parent="1">
          <mxGeometry x="130" y="270" width="110" height="60" as="geometry" />
        </mxCell>
        <mxCell id="zIOux4XEpl3hAwyCnQDO-7" value="alasan" style="ellipse;whiteSpace=wrap;html=1;" vertex="1" parent="1">
          <mxGeometry x="290" y="280" width="90" height="60" as="geometry" />
        </mxCell>
        <mxCell id="zIOux4XEpl3hAwyCnQDO-8" value="nama_pengaju" style="ellipse;whiteSpace=wrap;html=1;" vertex="1" parent="1">
          <mxGeometry x="370" y="230" width="110" height="60" as="geometry" />
        </mxCell>
        <mxCell id="zIOux4XEpl3hAwyCnQDO-9" value="usia" style="ellipse;whiteSpace=wrap;html=1;" vertex="1" parent="1">
          <mxGeometry x="400" y="163" width="90" height="60" as="geometry" />
        </mxCell>
        <mxCell id="zIOux4XEpl3hAwyCnQDO-10" value="pekerjaan" style="ellipse;whiteSpace=wrap;html=1;" vertex="1" parent="1">
          <mxGeometry x="425" y="100" width="90" height="60" as="geometry" />
        </mxCell>
        <mxCell id="zIOux4XEpl3hAwyCnQDO-11" value="penghasilan" style="ellipse;whiteSpace=wrap;html=1;" vertex="1" parent="1">
          <mxGeometry x="390" y="40" width="90" height="60" as="geometry" />
        </mxCell>
        <mxCell id="zIOux4XEpl3hAwyCnQDO-12" value="telepon" style="ellipse;whiteSpace=wrap;html=1;" vertex="1" parent="1">
          <mxGeometry x="298" y="30" width="90" height="60" as="geometry" />
        </mxCell>
        <mxCell id="zIOux4XEpl3hAwyCnQDO-13" value="alamat" style="ellipse;whiteSpace=wrap;html=1;" vertex="1" parent="1">
          <mxGeometry x="135" y="30" width="90" height="60" as="geometry" />
        </mxCell>
        <mxCell id="zIOux4XEpl3hAwyCnQDO-15" value="" style="endArrow=none;html=1;rounded=0;exitX=1;exitY=0.5;exitDx=0;exitDy=0;entryX=0;entryY=1;entryDx=0;entryDy=0;" edge="1" parent="1" source="zIOux4XEpl3hAwyCnQDO-4" target="zIOux4XEpl3hAwyCnQDO-1">
          <mxGeometry width="50" height="50" relative="1" as="geometry">
            <mxPoint x="110" y="260" as="sourcePoint" />
            <mxPoint x="160" y="210" as="targetPoint" />
          </mxGeometry>
        </mxCell>
        <mxCell id="zIOux4XEpl3hAwyCnQDO-16" value="" style="endArrow=none;html=1;rounded=0;exitX=1;exitY=0.5;exitDx=0;exitDy=0;entryX=0;entryY=0.75;entryDx=0;entryDy=0;" edge="1" parent="1" source="zIOux4XEpl3hAwyCnQDO-3" target="zIOux4XEpl3hAwyCnQDO-1">
          <mxGeometry width="50" height="50" relative="1" as="geometry">
            <mxPoint x="130" y="220" as="sourcePoint" />
            <mxPoint x="180" y="170" as="targetPoint" />
          </mxGeometry>
        </mxCell>
        <mxCell id="zIOux4XEpl3hAwyCnQDO-17" value="" style="endArrow=none;html=1;rounded=0;exitX=0.711;exitY=0.08;exitDx=0;exitDy=0;exitPerimeter=0;entryX=0.25;entryY=1;entryDx=0;entryDy=0;" edge="1" parent="1" source="zIOux4XEpl3hAwyCnQDO-5" target="zIOux4XEpl3hAwyCnQDO-1">
          <mxGeometry width="50" height="50" relative="1" as="geometry">
            <mxPoint x="190" y="270" as="sourcePoint" />
            <mxPoint x="210" y="200" as="targetPoint" />
          </mxGeometry>
        </mxCell>
        <mxCell id="zIOux4XEpl3hAwyCnQDO-18" value="" style="endArrow=none;html=1;rounded=0;exitX=1;exitY=0.5;exitDx=0;exitDy=0;entryX=0;entryY=0;entryDx=0;entryDy=0;" edge="1" parent="1" source="zIOux4XEpl3hAwyCnQDO-2" target="zIOux4XEpl3hAwyCnQDO-1">
          <mxGeometry width="50" height="50" relative="1" as="geometry">
            <mxPoint x="160" y="150" as="sourcePoint" />
            <mxPoint x="210" y="100" as="targetPoint" />
          </mxGeometry>
        </mxCell>
        <mxCell id="zIOux4XEpl3hAwyCnQDO-19" value="" style="endArrow=none;html=1;rounded=0;entryX=0.5;entryY=1;entryDx=0;entryDy=0;exitX=0.148;exitY=0.02;exitDx=0;exitDy=0;exitPerimeter=0;" edge="1" parent="1" source="zIOux4XEpl3hAwyCnQDO-1" target="zIOux4XEpl3hAwyCnQDO-13">
          <mxGeometry width="50" height="50" relative="1" as="geometry">
            <mxPoint x="210" y="140" as="sourcePoint" />
            <mxPoint x="260" y="90" as="targetPoint" />
          </mxGeometry>
        </mxCell>
        <mxCell id="zIOux4XEpl3hAwyCnQDO-20" value="" style="endArrow=none;html=1;rounded=0;exitX=0.5;exitY=0;exitDx=0;exitDy=0;entryX=0.5;entryY=1;entryDx=0;entryDy=0;" edge="1" parent="1" source="zIOux4XEpl3hAwyCnQDO-1" target="zIOux4XEpl3hAwyCnQDO-12">
          <mxGeometry width="50" height="50" relative="1" as="geometry">
            <mxPoint x="240" y="140" as="sourcePoint" />
            <mxPoint x="290" y="90" as="targetPoint" />
          </mxGeometry>
        </mxCell>
        <mxCell id="zIOux4XEpl3hAwyCnQDO-21" value="" style="endArrow=none;html=1;rounded=0;entryX=0;entryY=1;entryDx=0;entryDy=0;" edge="1" parent="1" source="zIOux4XEpl3hAwyCnQDO-1" target="zIOux4XEpl3hAwyCnQDO-11">
          <mxGeometry width="50" height="50" relative="1" as="geometry">
            <mxPoint x="310" y="140" as="sourcePoint" />
            <mxPoint x="360" y="90" as="targetPoint" />
          </mxGeometry>
        </mxCell>
        <mxCell id="zIOux4XEpl3hAwyCnQDO-22" value="" style="endArrow=none;html=1;rounded=0;exitX=1;exitY=0;exitDx=0;exitDy=0;entryX=0;entryY=0.5;entryDx=0;entryDy=0;" edge="1" parent="1" source="zIOux4XEpl3hAwyCnQDO-1" target="zIOux4XEpl3hAwyCnQDO-10">
          <mxGeometry width="50" height="50" relative="1" as="geometry">
            <mxPoint x="320" y="160" as="sourcePoint" />
            <mxPoint x="370" y="110" as="targetPoint" />
          </mxGeometry>
        </mxCell>
        <mxCell id="zIOux4XEpl3hAwyCnQDO-23" value="" style="endArrow=none;html=1;rounded=0;exitX=1;exitY=0.5;exitDx=0;exitDy=0;entryX=0;entryY=0.5;entryDx=0;entryDy=0;" edge="1" parent="1" source="zIOux4XEpl3hAwyCnQDO-1" target="zIOux4XEpl3hAwyCnQDO-9">
          <mxGeometry width="50" height="50" relative="1" as="geometry">
            <mxPoint x="320" y="230" as="sourcePoint" />
            <mxPoint x="370" y="180" as="targetPoint" />
          </mxGeometry>
        </mxCell>
        <mxCell id="zIOux4XEpl3hAwyCnQDO-24" value="" style="endArrow=none;html=1;rounded=0;entryX=0;entryY=0.5;entryDx=0;entryDy=0;exitX=1;exitY=1;exitDx=0;exitDy=0;" edge="1" parent="1" source="zIOux4XEpl3hAwyCnQDO-1" target="zIOux4XEpl3hAwyCnQDO-8">
          <mxGeometry width="50" height="50" relative="1" as="geometry">
            <mxPoint x="290" y="260" as="sourcePoint" />
            <mxPoint x="340" y="210" as="targetPoint" />
          </mxGeometry>
        </mxCell>
        <mxCell id="zIOux4XEpl3hAwyCnQDO-26" value="" style="endArrow=none;html=1;rounded=0;exitX=0;exitY=0;exitDx=0;exitDy=0;entryX=0.75;entryY=1;entryDx=0;entryDy=0;" edge="1" parent="1" source="zIOux4XEpl3hAwyCnQDO-7" target="zIOux4XEpl3hAwyCnQDO-1">
          <mxGeometry width="50" height="50" relative="1" as="geometry">
            <mxPoint x="280" y="270" as="sourcePoint" />
            <mxPoint x="330" y="220" as="targetPoint" />
          </mxGeometry>
        </mxCell>
        <mxCell id="zIOux4XEpl3hAwyCnQDO-27" value="" style="endArrow=none;html=1;rounded=0;exitX=0.5;exitY=0;exitDx=0;exitDy=0;entryX=0.25;entryY=1;entryDx=0;entryDy=0;" edge="1" parent="1" source="zIOux4XEpl3hAwyCnQDO-6" target="zIOux4XEpl3hAwyCnQDO-1">
          <mxGeometry width="50" height="50" relative="1" as="geometry">
            <mxPoint x="180" y="270" as="sourcePoint" />
            <mxPoint x="230" y="220" as="targetPoint" />
          </mxGeometry>
        </mxCell>
        <mxCell id="zIOux4XEpl3hAwyCnQDO-29" value="" style="endArrow=none;html=1;rounded=0;" edge="1" parent="1">
          <mxGeometry width="50" height="50" relative="1" as="geometry">
            <mxPoint x="250" y="372" as="sourcePoint" />
            <mxPoint x="249.5" y="210" as="targetPoint" />
          </mxGeometry>
        </mxCell>
        <mxCell id="zIOux4XEpl3hAwyCnQDO-128" value="M" style="edgeLabel;html=1;align=center;verticalAlign=middle;resizable=0;points=[];" vertex="1" connectable="0" parent="zIOux4XEpl3hAwyCnQDO-29">
          <mxGeometry x="-0.414" relative="1" as="geometry">
            <mxPoint as="offset" />
          </mxGeometry>
        </mxCell>
        <mxCell id="zIOux4XEpl3hAwyCnQDO-30" value="Memiliki" style="rhombus;whiteSpace=wrap;html=1;" vertex="1" parent="1">
          <mxGeometry x="210" y="372" width="80" height="80" as="geometry" />
        </mxCell>
        <mxCell id="zIOux4XEpl3hAwyCnQDO-31" value="" style="endArrow=none;html=1;rounded=0;exitX=0.5;exitY=0;exitDx=0;exitDy=0;" edge="1" parent="1" source="zIOux4XEpl3hAwyCnQDO-1">
          <mxGeometry width="50" height="50" relative="1" as="geometry">
            <mxPoint x="250" y="140" as="sourcePoint" />
            <mxPoint x="250" y="-20" as="targetPoint" />
          </mxGeometry>
        </mxCell>
        <mxCell id="zIOux4XEpl3hAwyCnQDO-127" value="M" style="edgeLabel;html=1;align=center;verticalAlign=middle;resizable=0;points=[];" vertex="1" connectable="0" parent="zIOux4XEpl3hAwyCnQDO-31">
          <mxGeometry x="0.1024" relative="1" as="geometry">
            <mxPoint as="offset" />
          </mxGeometry>
        </mxCell>
        <mxCell id="zIOux4XEpl3hAwyCnQDO-32" value="Melakukan" style="rhombus;whiteSpace=wrap;html=1;" vertex="1" parent="1">
          <mxGeometry x="210" y="-100" width="80" height="80" as="geometry" />
        </mxCell>
        <mxCell id="zIOux4XEpl3hAwyCnQDO-33" value="Adopter" style="rounded=0;whiteSpace=wrap;html=1;" vertex="1" parent="1">
          <mxGeometry x="190" y="-300" width="120" height="60" as="geometry" />
        </mxCell>
        <mxCell id="zIOux4XEpl3hAwyCnQDO-34" value="" style="endArrow=none;html=1;rounded=0;exitX=0.5;exitY=0;exitDx=0;exitDy=0;entryX=0.5;entryY=1;entryDx=0;entryDy=0;" edge="1" parent="1" source="zIOux4XEpl3hAwyCnQDO-32" target="zIOux4XEpl3hAwyCnQDO-33">
          <mxGeometry width="50" height="50" relative="1" as="geometry">
            <mxPoint x="240" y="-140" as="sourcePoint" />
            <mxPoint x="290" y="-190" as="targetPoint" />
          </mxGeometry>
        </mxCell>
        <mxCell id="zIOux4XEpl3hAwyCnQDO-126" value="1" style="edgeLabel;html=1;align=center;verticalAlign=middle;resizable=0;points=[];" vertex="1" connectable="0" parent="zIOux4XEpl3hAwyCnQDO-34">
          <mxGeometry x="-0.6109" relative="1" as="geometry">
            <mxPoint as="offset" />
          </mxGeometry>
        </mxCell>
        <mxCell id="zIOux4XEpl3hAwyCnQDO-35" value="&lt;u&gt;id_adopter&lt;/u&gt;" style="ellipse;whiteSpace=wrap;html=1;" vertex="1" parent="1">
          <mxGeometry x="80" y="-390" width="100" height="60" as="geometry" />
        </mxCell>
        <mxCell id="zIOux4XEpl3hAwyCnQDO-36" value="nama" style="ellipse;whiteSpace=wrap;html=1;" vertex="1" parent="1">
          <mxGeometry x="50" y="-320" width="100" height="60" as="geometry" />
        </mxCell>
        <mxCell id="zIOux4XEpl3hAwyCnQDO-37" value="email" style="ellipse;whiteSpace=wrap;html=1;" vertex="1" parent="1">
          <mxGeometry x="50" y="-240" width="100" height="60" as="geometry" />
        </mxCell>
        <mxCell id="zIOux4XEpl3hAwyCnQDO-38" value="password" style="ellipse;whiteSpace=wrap;html=1;" vertex="1" parent="1">
          <mxGeometry x="120" y="-180" width="100" height="60" as="geometry" />
        </mxCell>
        <mxCell id="zIOux4XEpl3hAwyCnQDO-39" value="alamat" style="ellipse;whiteSpace=wrap;html=1;" vertex="1" parent="1">
          <mxGeometry x="260" y="-190" width="100" height="60" as="geometry" />
        </mxCell>
        <mxCell id="zIOux4XEpl3hAwyCnQDO-40" value="telepon" style="ellipse;whiteSpace=wrap;html=1;" vertex="1" parent="1">
          <mxGeometry x="288" y="-410" width="100" height="60" as="geometry" />
        </mxCell>
        <mxCell id="zIOux4XEpl3hAwyCnQDO-41" value="foto" style="ellipse;whiteSpace=wrap;html=1;" vertex="1" parent="1">
          <mxGeometry x="180" y="-420" width="100" height="60" as="geometry" />
        </mxCell>
        <mxCell id="zIOux4XEpl3hAwyCnQDO-42" value="" style="endArrow=none;html=1;rounded=0;exitX=1;exitY=0.5;exitDx=0;exitDy=0;entryX=0;entryY=0.5;entryDx=0;entryDy=0;" edge="1" parent="1" source="zIOux4XEpl3hAwyCnQDO-36" target="zIOux4XEpl3hAwyCnQDO-33">
          <mxGeometry width="50" height="50" relative="1" as="geometry">
            <mxPoint x="190" y="-160" as="sourcePoint" />
            <mxPoint x="240" y="-210" as="targetPoint" />
          </mxGeometry>
        </mxCell>
        <mxCell id="zIOux4XEpl3hAwyCnQDO-43" value="" style="endArrow=none;html=1;rounded=0;exitX=1;exitY=0.5;exitDx=0;exitDy=0;entryX=0;entryY=1;entryDx=0;entryDy=0;" edge="1" parent="1" source="zIOux4XEpl3hAwyCnQDO-37" target="zIOux4XEpl3hAwyCnQDO-33">
          <mxGeometry width="50" height="50" relative="1" as="geometry">
            <mxPoint x="170" y="-180" as="sourcePoint" />
            <mxPoint x="220" y="-230" as="targetPoint" />
          </mxGeometry>
        </mxCell>
        <mxCell id="zIOux4XEpl3hAwyCnQDO-44" value="" style="endArrow=none;html=1;rounded=0;exitX=0.5;exitY=0;exitDx=0;exitDy=0;entryX=0.25;entryY=1;entryDx=0;entryDy=0;" edge="1" parent="1" source="zIOux4XEpl3hAwyCnQDO-38" target="zIOux4XEpl3hAwyCnQDO-33">
          <mxGeometry width="50" height="50" relative="1" as="geometry">
            <mxPoint x="180" y="-170" as="sourcePoint" />
            <mxPoint x="230" y="-220" as="targetPoint" />
          </mxGeometry>
        </mxCell>
        <mxCell id="zIOux4XEpl3hAwyCnQDO-45" value="" style="endArrow=none;html=1;rounded=0;exitX=1;exitY=1;exitDx=0;exitDy=0;entryX=0;entryY=0;entryDx=0;entryDy=0;" edge="1" parent="1" source="zIOux4XEpl3hAwyCnQDO-35" target="zIOux4XEpl3hAwyCnQDO-33">
          <mxGeometry width="50" height="50" relative="1" as="geometry">
            <mxPoint x="200" y="-300" as="sourcePoint" />
            <mxPoint x="250" y="-350" as="targetPoint" />
          </mxGeometry>
        </mxCell>
        <mxCell id="zIOux4XEpl3hAwyCnQDO-46" value="" style="endArrow=none;html=1;rounded=0;exitX=0.5;exitY=0;exitDx=0;exitDy=0;entryX=0.5;entryY=1;entryDx=0;entryDy=0;" edge="1" parent="1" source="zIOux4XEpl3hAwyCnQDO-33" target="zIOux4XEpl3hAwyCnQDO-41">
          <mxGeometry width="50" height="50" relative="1" as="geometry">
            <mxPoint x="230" y="-307" as="sourcePoint" />
            <mxPoint x="280" y="-357" as="targetPoint" />
          </mxGeometry>
        </mxCell>
        <mxCell id="zIOux4XEpl3hAwyCnQDO-47" value="" style="endArrow=none;html=1;rounded=0;exitX=1;exitY=0;exitDx=0;exitDy=0;entryX=0.5;entryY=1;entryDx=0;entryDy=0;" edge="1" parent="1" source="zIOux4XEpl3hAwyCnQDO-33" target="zIOux4XEpl3hAwyCnQDO-40">
          <mxGeometry width="50" height="50" relative="1" as="geometry">
            <mxPoint x="340" y="-290" as="sourcePoint" />
            <mxPoint x="390" y="-340" as="targetPoint" />
          </mxGeometry>
        </mxCell>
        <mxCell id="zIOux4XEpl3hAwyCnQDO-48" value="" style="endArrow=none;html=1;rounded=0;exitX=0.75;exitY=1;exitDx=0;exitDy=0;entryX=0.5;entryY=0;entryDx=0;entryDy=0;" edge="1" parent="1" source="zIOux4XEpl3hAwyCnQDO-33" target="zIOux4XEpl3hAwyCnQDO-39">
          <mxGeometry width="50" height="50" relative="1" as="geometry">
            <mxPoint x="340" y="-240" as="sourcePoint" />
            <mxPoint x="390" y="-290" as="targetPoint" />
          </mxGeometry>
        </mxCell>
        <mxCell id="zIOux4XEpl3hAwyCnQDO-49" value="" style="endArrow=none;html=1;rounded=0;exitX=1;exitY=0.5;exitDx=0;exitDy=0;" edge="1" parent="1" source="zIOux4XEpl3hAwyCnQDO-33">
          <mxGeometry width="50" height="50" relative="1" as="geometry">
            <mxPoint x="380" y="-260" as="sourcePoint" />
            <mxPoint x="440" y="-270" as="targetPoint" />
          </mxGeometry>
        </mxCell>
        <mxCell id="zIOux4XEpl3hAwyCnQDO-123" value="1" style="edgeLabel;html=1;align=center;verticalAlign=middle;resizable=0;points=[];" vertex="1" connectable="0" parent="zIOux4XEpl3hAwyCnQDO-49">
          <mxGeometry x="0.1897" y="-1" relative="1" as="geometry">
            <mxPoint x="1" as="offset" />
          </mxGeometry>
        </mxCell>
        <mxCell id="zIOux4XEpl3hAwyCnQDO-50" value="Melakukan" style="rhombus;whiteSpace=wrap;html=1;" vertex="1" parent="1">
          <mxGeometry x="440" y="-310" width="80" height="80" as="geometry" />
        </mxCell>
        <mxCell id="zIOux4XEpl3hAwyCnQDO-51" value="" style="endArrow=none;html=1;rounded=0;exitX=1;exitY=0.5;exitDx=0;exitDy=0;" edge="1" parent="1" source="zIOux4XEpl3hAwyCnQDO-50">
          <mxGeometry width="50" height="50" relative="1" as="geometry">
            <mxPoint x="550" y="-270" as="sourcePoint" />
            <mxPoint x="610" y="-270" as="targetPoint" />
          </mxGeometry>
        </mxCell>
        <mxCell id="zIOux4XEpl3hAwyCnQDO-124" value="M" style="edgeLabel;html=1;align=center;verticalAlign=middle;resizable=0;points=[];" vertex="1" connectable="0" parent="zIOux4XEpl3hAwyCnQDO-51">
          <mxGeometry x="0.0889" y="4" relative="1" as="geometry">
            <mxPoint x="1" as="offset" />
          </mxGeometry>
        </mxCell>
        <mxCell id="zIOux4XEpl3hAwyCnQDO-52" value="Donasi" style="rounded=0;whiteSpace=wrap;html=1;" vertex="1" parent="1">
          <mxGeometry x="610" y="-300" width="120" height="60" as="geometry" />
        </mxCell>
        <mxCell id="zIOux4XEpl3hAwyCnQDO-53" value="&lt;u&gt;id_donasi&lt;/u&gt;" style="ellipse;whiteSpace=wrap;html=1;" vertex="1" parent="1">
          <mxGeometry x="560" y="-430" width="100" height="60" as="geometry" />
        </mxCell>
        <mxCell id="zIOux4XEpl3hAwyCnQDO-54" value="" style="endArrow=none;html=1;rounded=0;exitX=0.25;exitY=0;exitDx=0;exitDy=0;entryX=0.5;entryY=1;entryDx=0;entryDy=0;" edge="1" parent="1" source="zIOux4XEpl3hAwyCnQDO-52" target="zIOux4XEpl3hAwyCnQDO-53">
          <mxGeometry width="50" height="50" relative="1" as="geometry">
            <mxPoint x="690" y="-320" as="sourcePoint" />
            <mxPoint x="740" y="-370" as="targetPoint" />
          </mxGeometry>
        </mxCell>
        <mxCell id="zIOux4XEpl3hAwyCnQDO-55" value="id_adopter" style="ellipse;whiteSpace=wrap;html=1;" vertex="1" parent="1">
          <mxGeometry x="666" y="-440" width="100" height="60" as="geometry" />
        </mxCell>
        <mxCell id="zIOux4XEpl3hAwyCnQDO-56" value="nama_donatur" style="ellipse;whiteSpace=wrap;html=1;" vertex="1" parent="1">
          <mxGeometry x="750" y="-390" width="100" height="60" as="geometry" />
        </mxCell>
        <mxCell id="zIOux4XEpl3hAwyCnQDO-57" value="jumlah" style="ellipse;whiteSpace=wrap;html=1;" vertex="1" parent="1">
          <mxGeometry x="790" y="-320" width="100" height="60" as="geometry" />
        </mxCell>
        <mxCell id="zIOux4XEpl3hAwyCnQDO-58" value="tanggal" style="ellipse;whiteSpace=wrap;html=1;" vertex="1" parent="1">
          <mxGeometry x="760" y="-240" width="100" height="60" as="geometry" />
        </mxCell>
        <mxCell id="zIOux4XEpl3hAwyCnQDO-59" value="metode_pembayaran" style="ellipse;whiteSpace=wrap;html=1;" vertex="1" parent="1">
          <mxGeometry x="530" y="-200" width="120" height="60" as="geometry" />
        </mxCell>
        <mxCell id="zIOux4XEpl3hAwyCnQDO-60" value="bukti_transfer" style="ellipse;whiteSpace=wrap;html=1;" vertex="1" parent="1">
          <mxGeometry x="656" y="-190" width="120" height="60" as="geometry" />
        </mxCell>
        <mxCell id="zIOux4XEpl3hAwyCnQDO-61" value="" style="endArrow=none;html=1;rounded=0;exitX=0.5;exitY=0;exitDx=0;exitDy=0;entryX=0.5;entryY=1;entryDx=0;entryDy=0;" edge="1" parent="1" source="zIOux4XEpl3hAwyCnQDO-52" target="zIOux4XEpl3hAwyCnQDO-55">
          <mxGeometry width="50" height="50" relative="1" as="geometry">
            <mxPoint x="670" y="-320" as="sourcePoint" />
            <mxPoint x="720" y="-370" as="targetPoint" />
          </mxGeometry>
        </mxCell>
        <mxCell id="zIOux4XEpl3hAwyCnQDO-62" value="" style="endArrow=none;html=1;rounded=0;exitX=0.75;exitY=0;exitDx=0;exitDy=0;entryX=0;entryY=0.5;entryDx=0;entryDy=0;" edge="1" parent="1" source="zIOux4XEpl3hAwyCnQDO-52" target="zIOux4XEpl3hAwyCnQDO-56">
          <mxGeometry width="50" height="50" relative="1" as="geometry">
            <mxPoint x="710" y="-300" as="sourcePoint" />
            <mxPoint x="760" y="-350" as="targetPoint" />
          </mxGeometry>
        </mxCell>
        <mxCell id="zIOux4XEpl3hAwyCnQDO-63" value="" style="endArrow=none;html=1;rounded=0;exitX=1;exitY=0.5;exitDx=0;exitDy=0;entryX=0;entryY=0.5;entryDx=0;entryDy=0;" edge="1" parent="1" source="zIOux4XEpl3hAwyCnQDO-52" target="zIOux4XEpl3hAwyCnQDO-57">
          <mxGeometry width="50" height="50" relative="1" as="geometry">
            <mxPoint x="750" y="-245" as="sourcePoint" />
            <mxPoint x="800" y="-295" as="targetPoint" />
          </mxGeometry>
        </mxCell>
        <mxCell id="zIOux4XEpl3hAwyCnQDO-64" value="" style="endArrow=none;html=1;rounded=0;entryX=0;entryY=0;entryDx=0;entryDy=0;exitX=1;exitY=1;exitDx=0;exitDy=0;" edge="1" parent="1" source="zIOux4XEpl3hAwyCnQDO-52" target="zIOux4XEpl3hAwyCnQDO-58">
          <mxGeometry width="50" height="50" relative="1" as="geometry">
            <mxPoint x="730" y="-220" as="sourcePoint" />
            <mxPoint x="800.7106781186548" y="-270" as="targetPoint" />
          </mxGeometry>
        </mxCell>
        <mxCell id="zIOux4XEpl3hAwyCnQDO-65" value="" style="endArrow=none;html=1;rounded=0;exitX=0.5;exitY=0;exitDx=0;exitDy=0;entryX=0.75;entryY=1;entryDx=0;entryDy=0;" edge="1" parent="1" source="zIOux4XEpl3hAwyCnQDO-60" target="zIOux4XEpl3hAwyCnQDO-52">
          <mxGeometry width="50" height="50" relative="1" as="geometry">
            <mxPoint x="660" y="-190" as="sourcePoint" />
            <mxPoint x="710" y="-240" as="targetPoint" />
          </mxGeometry>
        </mxCell>
        <mxCell id="zIOux4XEpl3hAwyCnQDO-66" value="" style="endArrow=none;html=1;rounded=0;exitX=0.5;exitY=0;exitDx=0;exitDy=0;entryX=0;entryY=1;entryDx=0;entryDy=0;" edge="1" parent="1" source="zIOux4XEpl3hAwyCnQDO-59" target="zIOux4XEpl3hAwyCnQDO-52">
          <mxGeometry width="50" height="50" relative="1" as="geometry">
            <mxPoint x="620" y="-170" as="sourcePoint" />
            <mxPoint x="670" y="-220" as="targetPoint" />
          </mxGeometry>
        </mxCell>
        <mxCell id="zIOux4XEpl3hAwyCnQDO-67" value="" style="endArrow=none;html=1;rounded=0;entryX=0.5;entryY=1;entryDx=0;entryDy=0;" edge="1" parent="1" target="zIOux4XEpl3hAwyCnQDO-30">
          <mxGeometry width="50" height="50" relative="1" as="geometry">
            <mxPoint x="250" y="530" as="sourcePoint" />
            <mxPoint x="298" y="480" as="targetPoint" />
          </mxGeometry>
        </mxCell>
        <mxCell id="zIOux4XEpl3hAwyCnQDO-129" value="1" style="edgeLabel;html=1;align=center;verticalAlign=middle;resizable=0;points=[];" vertex="1" connectable="0" parent="zIOux4XEpl3hAwyCnQDO-67">
          <mxGeometry x="0.5038" y="1" relative="1" as="geometry">
            <mxPoint as="offset" />
          </mxGeometry>
        </mxCell>
        <mxCell id="zIOux4XEpl3hAwyCnQDO-68" value="Hewan" style="rounded=0;whiteSpace=wrap;html=1;" vertex="1" parent="1">
          <mxGeometry x="190" y="530" width="120" height="60" as="geometry" />
        </mxCell>
        <mxCell id="zIOux4XEpl3hAwyCnQDO-69" value="&lt;u&gt;id_hewan&lt;/u&gt;" style="ellipse;whiteSpace=wrap;html=1;" vertex="1" parent="1">
          <mxGeometry x="110" y="420" width="90" height="50" as="geometry" />
        </mxCell>
        <mxCell id="zIOux4XEpl3hAwyCnQDO-70" value="nama" style="ellipse;whiteSpace=wrap;html=1;" vertex="1" parent="1">
          <mxGeometry x="70" y="476" width="90" height="50" as="geometry" />
        </mxCell>
        <mxCell id="zIOux4XEpl3hAwyCnQDO-71" value="jenis" style="ellipse;whiteSpace=wrap;html=1;" vertex="1" parent="1">
          <mxGeometry x="55" y="535" width="90" height="50" as="geometry" />
        </mxCell>
        <mxCell id="zIOux4XEpl3hAwyCnQDO-73" value="ras" style="ellipse;whiteSpace=wrap;html=1;" vertex="1" parent="1">
          <mxGeometry x="80" y="591" width="90" height="50" as="geometry" />
        </mxCell>
        <mxCell id="zIOux4XEpl3hAwyCnQDO-74" value="gender" style="ellipse;whiteSpace=wrap;html=1;" vertex="1" parent="1">
          <mxGeometry x="180" y="630" width="90" height="50" as="geometry" />
        </mxCell>
        <mxCell id="zIOux4XEpl3hAwyCnQDO-75" value="umur" style="ellipse;whiteSpace=wrap;html=1;" vertex="1" parent="1">
          <mxGeometry x="288" y="620" width="90" height="50" as="geometry" />
        </mxCell>
        <mxCell id="zIOux4XEpl3hAwyCnQDO-76" value="deskripsi" style="ellipse;whiteSpace=wrap;html=1;" vertex="1" parent="1">
          <mxGeometry x="350" y="540" width="90" height="50" as="geometry" />
        </mxCell>
        <mxCell id="zIOux4XEpl3hAwyCnQDO-77" value="status_adopsi" style="ellipse;whiteSpace=wrap;html=1;" vertex="1" parent="1">
          <mxGeometry x="340" y="470" width="90" height="50" as="geometry" />
        </mxCell>
        <mxCell id="zIOux4XEpl3hAwyCnQDO-78" value="foto" style="ellipse;whiteSpace=wrap;html=1;" vertex="1" parent="1">
          <mxGeometry x="293" y="420" width="90" height="50" as="geometry" />
        </mxCell>
        <mxCell id="zIOux4XEpl3hAwyCnQDO-79" value="" style="endArrow=none;html=1;rounded=0;exitX=0.25;exitY=0;exitDx=0;exitDy=0;entryX=1;entryY=0.5;entryDx=0;entryDy=0;" edge="1" parent="1" source="zIOux4XEpl3hAwyCnQDO-68" target="zIOux4XEpl3hAwyCnQDO-69">
          <mxGeometry width="50" height="50" relative="1" as="geometry">
            <mxPoint x="180" y="510" as="sourcePoint" />
            <mxPoint x="230" y="460" as="targetPoint" />
          </mxGeometry>
        </mxCell>
        <mxCell id="zIOux4XEpl3hAwyCnQDO-80" value="" style="endArrow=none;html=1;rounded=0;exitX=1;exitY=0.5;exitDx=0;exitDy=0;entryX=0;entryY=0;entryDx=0;entryDy=0;" edge="1" parent="1" source="zIOux4XEpl3hAwyCnQDO-70" target="zIOux4XEpl3hAwyCnQDO-68">
          <mxGeometry width="50" height="50" relative="1" as="geometry">
            <mxPoint x="160" y="550" as="sourcePoint" />
            <mxPoint x="210" y="500" as="targetPoint" />
          </mxGeometry>
        </mxCell>
        <mxCell id="zIOux4XEpl3hAwyCnQDO-81" value="" style="endArrow=none;html=1;rounded=0;exitX=1;exitY=0.5;exitDx=0;exitDy=0;entryX=0;entryY=0.5;entryDx=0;entryDy=0;" edge="1" parent="1" source="zIOux4XEpl3hAwyCnQDO-71" target="zIOux4XEpl3hAwyCnQDO-68">
          <mxGeometry width="50" height="50" relative="1" as="geometry">
            <mxPoint x="180" y="590" as="sourcePoint" />
            <mxPoint x="230" y="540" as="targetPoint" />
          </mxGeometry>
        </mxCell>
        <mxCell id="zIOux4XEpl3hAwyCnQDO-82" value="" style="endArrow=none;html=1;rounded=0;exitX=1;exitY=0;exitDx=0;exitDy=0;entryX=0;entryY=1;entryDx=0;entryDy=0;" edge="1" parent="1" source="zIOux4XEpl3hAwyCnQDO-73" target="zIOux4XEpl3hAwyCnQDO-68">
          <mxGeometry width="50" height="50" relative="1" as="geometry">
            <mxPoint x="170" y="600" as="sourcePoint" />
            <mxPoint x="220" y="550" as="targetPoint" />
          </mxGeometry>
        </mxCell>
        <mxCell id="zIOux4XEpl3hAwyCnQDO-83" value="" style="endArrow=none;html=1;rounded=0;exitX=0.5;exitY=0;exitDx=0;exitDy=0;entryX=0.25;entryY=1;entryDx=0;entryDy=0;" edge="1" parent="1" source="zIOux4XEpl3hAwyCnQDO-74" target="zIOux4XEpl3hAwyCnQDO-68">
          <mxGeometry width="50" height="50" relative="1" as="geometry">
            <mxPoint x="250" y="620" as="sourcePoint" />
            <mxPoint x="300" y="570" as="targetPoint" />
          </mxGeometry>
        </mxCell>
        <mxCell id="zIOux4XEpl3hAwyCnQDO-84" value="" style="endArrow=none;html=1;rounded=0;exitX=0.5;exitY=0;exitDx=0;exitDy=0;entryX=1;entryY=1;entryDx=0;entryDy=0;" edge="1" parent="1" source="zIOux4XEpl3hAwyCnQDO-75" target="zIOux4XEpl3hAwyCnQDO-68">
          <mxGeometry width="50" height="50" relative="1" as="geometry">
            <mxPoint x="300" y="610" as="sourcePoint" />
            <mxPoint x="350" y="560" as="targetPoint" />
          </mxGeometry>
        </mxCell>
        <mxCell id="zIOux4XEpl3hAwyCnQDO-85" value="" style="endArrow=none;html=1;rounded=0;exitX=1;exitY=0.5;exitDx=0;exitDy=0;entryX=0;entryY=0.5;entryDx=0;entryDy=0;" edge="1" parent="1" source="zIOux4XEpl3hAwyCnQDO-68" target="zIOux4XEpl3hAwyCnQDO-76">
          <mxGeometry width="50" height="50" relative="1" as="geometry">
            <mxPoint x="330" y="550" as="sourcePoint" />
            <mxPoint x="380" y="500" as="targetPoint" />
          </mxGeometry>
        </mxCell>
        <mxCell id="zIOux4XEpl3hAwyCnQDO-86" value="" style="endArrow=none;html=1;rounded=0;exitX=1;exitY=0;exitDx=0;exitDy=0;entryX=0;entryY=1;entryDx=0;entryDy=0;" edge="1" parent="1" source="zIOux4XEpl3hAwyCnQDO-68" target="zIOux4XEpl3hAwyCnQDO-77">
          <mxGeometry width="50" height="50" relative="1" as="geometry">
            <mxPoint x="330" y="500" as="sourcePoint" />
            <mxPoint x="380" y="450" as="targetPoint" />
          </mxGeometry>
        </mxCell>
        <mxCell id="zIOux4XEpl3hAwyCnQDO-87" value="" style="endArrow=none;html=1;rounded=0;exitX=0.75;exitY=0;exitDx=0;exitDy=0;entryX=0;entryY=1;entryDx=0;entryDy=0;" edge="1" parent="1" source="zIOux4XEpl3hAwyCnQDO-68" target="zIOux4XEpl3hAwyCnQDO-78">
          <mxGeometry width="50" height="50" relative="1" as="geometry">
            <mxPoint x="280" y="510" as="sourcePoint" />
            <mxPoint x="330" y="460" as="targetPoint" />
          </mxGeometry>
        </mxCell>
        <mxCell id="zIOux4XEpl3hAwyCnQDO-88" value="admin" style="rounded=0;whiteSpace=wrap;html=1;" vertex="1" parent="1">
          <mxGeometry x="-200" y="-200" width="120" height="60" as="geometry" />
        </mxCell>
        <mxCell id="zIOux4XEpl3hAwyCnQDO-89" value="&lt;u&gt;id_admin&lt;/u&gt;" style="ellipse;whiteSpace=wrap;html=1;" vertex="1" parent="1">
          <mxGeometry x="-290" y="-280" width="90" height="60" as="geometry" />
        </mxCell>
        <mxCell id="zIOux4XEpl3hAwyCnQDO-90" value="nama" style="ellipse;whiteSpace=wrap;html=1;" vertex="1" parent="1">
          <mxGeometry x="-320" y="-200" width="90" height="60" as="geometry" />
        </mxCell>
        <mxCell id="zIOux4XEpl3hAwyCnQDO-91" value="email" style="ellipse;whiteSpace=wrap;html=1;" vertex="1" parent="1">
          <mxGeometry x="-280" y="-120" width="90" height="60" as="geometry" />
        </mxCell>
        <mxCell id="zIOux4XEpl3hAwyCnQDO-92" value="password" style="ellipse;whiteSpace=wrap;html=1;" vertex="1" parent="1">
          <mxGeometry x="-110" y="-120" width="90" height="60" as="geometry" />
        </mxCell>
        <mxCell id="zIOux4XEpl3hAwyCnQDO-93" value="foto" style="ellipse;whiteSpace=wrap;html=1;" vertex="1" parent="1">
          <mxGeometry x="-65" y="-280" width="90" height="60" as="geometry" />
        </mxCell>
        <mxCell id="zIOux4XEpl3hAwyCnQDO-94" value="telepon" style="ellipse;whiteSpace=wrap;html=1;" vertex="1" parent="1">
          <mxGeometry x="-185" y="-300" width="90" height="60" as="geometry" />
        </mxCell>
        <mxCell id="zIOux4XEpl3hAwyCnQDO-95" value="" style="endArrow=none;html=1;rounded=0;exitX=1;exitY=0;exitDx=0;exitDy=0;entryX=0;entryY=1;entryDx=0;entryDy=0;" edge="1" parent="1" source="zIOux4XEpl3hAwyCnQDO-88" target="zIOux4XEpl3hAwyCnQDO-93">
          <mxGeometry width="50" height="50" relative="1" as="geometry">
            <mxPoint x="-60" y="-150" as="sourcePoint" />
            <mxPoint x="-10" y="-200" as="targetPoint" />
          </mxGeometry>
        </mxCell>
        <mxCell id="zIOux4XEpl3hAwyCnQDO-96" value="" style="endArrow=none;html=1;rounded=0;exitX=0.5;exitY=0;exitDx=0;exitDy=0;entryX=0.5;entryY=1;entryDx=0;entryDy=0;" edge="1" parent="1" source="zIOux4XEpl3hAwyCnQDO-88" target="zIOux4XEpl3hAwyCnQDO-94">
          <mxGeometry width="50" height="50" relative="1" as="geometry">
            <mxPoint x="-120" y="-210" as="sourcePoint" />
            <mxPoint x="-70" y="-260" as="targetPoint" />
          </mxGeometry>
        </mxCell>
        <mxCell id="zIOux4XEpl3hAwyCnQDO-97" value="" style="endArrow=none;html=1;rounded=0;exitX=0;exitY=0;exitDx=0;exitDy=0;entryX=1;entryY=1;entryDx=0;entryDy=0;" edge="1" parent="1" source="zIOux4XEpl3hAwyCnQDO-88" target="zIOux4XEpl3hAwyCnQDO-89">
          <mxGeometry width="50" height="50" relative="1" as="geometry">
            <mxPoint x="-210" y="-210" as="sourcePoint" />
            <mxPoint x="-160" y="-260" as="targetPoint" />
          </mxGeometry>
        </mxCell>
        <mxCell id="zIOux4XEpl3hAwyCnQDO-98" value="" style="endArrow=none;html=1;rounded=0;exitX=1;exitY=0.5;exitDx=0;exitDy=0;entryX=0;entryY=0.5;entryDx=0;entryDy=0;" edge="1" parent="1" source="zIOux4XEpl3hAwyCnQDO-90" target="zIOux4XEpl3hAwyCnQDO-88">
          <mxGeometry width="50" height="50" relative="1" as="geometry">
            <mxPoint x="-220" y="-140" as="sourcePoint" />
            <mxPoint x="-170" y="-190" as="targetPoint" />
          </mxGeometry>
        </mxCell>
        <mxCell id="zIOux4XEpl3hAwyCnQDO-99" value="" style="endArrow=none;html=1;rounded=0;exitX=0.5;exitY=0;exitDx=0;exitDy=0;entryX=0;entryY=1;entryDx=0;entryDy=0;" edge="1" parent="1" source="zIOux4XEpl3hAwyCnQDO-91" target="zIOux4XEpl3hAwyCnQDO-88">
          <mxGeometry width="50" height="50" relative="1" as="geometry">
            <mxPoint x="-170" y="-80" as="sourcePoint" />
            <mxPoint x="-120" y="-130" as="targetPoint" />
          </mxGeometry>
        </mxCell>
        <mxCell id="zIOux4XEpl3hAwyCnQDO-100" value="" style="endArrow=none;html=1;rounded=0;exitX=1;exitY=1;exitDx=0;exitDy=0;entryX=0.5;entryY=0;entryDx=0;entryDy=0;" edge="1" parent="1" source="zIOux4XEpl3hAwyCnQDO-88" target="zIOux4XEpl3hAwyCnQDO-92">
          <mxGeometry width="50" height="50" relative="1" as="geometry">
            <mxPoint x="-50" y="-140" as="sourcePoint" />
            <mxPoint y="-190" as="targetPoint" />
          </mxGeometry>
        </mxCell>
        <mxCell id="zIOux4XEpl3hAwyCnQDO-101" value="dokumentasi_donasi" style="rounded=0;whiteSpace=wrap;html=1;" vertex="1" parent="1">
          <mxGeometry x="-200" y="60" width="120" height="60" as="geometry" />
        </mxCell>
        <mxCell id="zIOux4XEpl3hAwyCnQDO-102" value="&lt;u&gt;id_dokum&lt;/u&gt;" style="ellipse;whiteSpace=wrap;html=1;" vertex="1" parent="1">
          <mxGeometry x="-185" y="-40" width="90" height="60" as="geometry" />
        </mxCell>
        <mxCell id="zIOux4XEpl3hAwyCnQDO-103" value="foto_donasi" style="ellipse;whiteSpace=wrap;html=1;" vertex="1" parent="1">
          <mxGeometry x="-65" y="-20" width="90" height="60" as="geometry" />
        </mxCell>
        <mxCell id="zIOux4XEpl3hAwyCnQDO-104" value="created_at" style="ellipse;whiteSpace=wrap;html=1;" vertex="1" parent="1">
          <mxGeometry x="-80" y="140" width="90" height="60" as="geometry" />
        </mxCell>
        <mxCell id="zIOux4XEpl3hAwyCnQDO-105" value="deskripsi" style="ellipse;whiteSpace=wrap;html=1;" vertex="1" parent="1">
          <mxGeometry x="-275" y="140" width="90" height="60" as="geometry" />
        </mxCell>
        <mxCell id="zIOux4XEpl3hAwyCnQDO-106" value="judul_donasi" style="ellipse;whiteSpace=wrap;html=1;" vertex="1" parent="1">
          <mxGeometry x="-310" y="-20" width="90" height="60" as="geometry" />
        </mxCell>
        <mxCell id="zIOux4XEpl3hAwyCnQDO-107" value="" style="endArrow=none;html=1;rounded=0;exitX=0.5;exitY=0;exitDx=0;exitDy=0;entryX=0.5;entryY=1;entryDx=0;entryDy=0;" edge="1" parent="1" source="zIOux4XEpl3hAwyCnQDO-101" target="zIOux4XEpl3hAwyCnQDO-102">
          <mxGeometry width="50" height="50" relative="1" as="geometry">
            <mxPoint x="-110" y="50" as="sourcePoint" />
            <mxPoint x="-60" as="targetPoint" />
          </mxGeometry>
        </mxCell>
        <mxCell id="zIOux4XEpl3hAwyCnQDO-108" value="" style="endArrow=none;html=1;rounded=0;exitX=1;exitY=0;exitDx=0;exitDy=0;entryX=0;entryY=0.5;entryDx=0;entryDy=0;" edge="1" parent="1" source="zIOux4XEpl3hAwyCnQDO-101" target="zIOux4XEpl3hAwyCnQDO-103">
          <mxGeometry width="50" height="50" relative="1" as="geometry">
            <mxPoint x="-50" y="110" as="sourcePoint" />
            <mxPoint y="60" as="targetPoint" />
          </mxGeometry>
        </mxCell>
        <mxCell id="zIOux4XEpl3hAwyCnQDO-109" value="" style="endArrow=none;html=1;rounded=0;entryX=0;entryY=0;entryDx=0;entryDy=0;exitX=1;exitY=1;exitDx=0;exitDy=0;" edge="1" parent="1" source="zIOux4XEpl3hAwyCnQDO-106" target="zIOux4XEpl3hAwyCnQDO-101">
          <mxGeometry width="50" height="50" relative="1" as="geometry">
            <mxPoint x="-260" y="110" as="sourcePoint" />
            <mxPoint x="-210" y="60" as="targetPoint" />
          </mxGeometry>
        </mxCell>
        <mxCell id="zIOux4XEpl3hAwyCnQDO-110" value="" style="endArrow=none;html=1;rounded=0;entryX=0;entryY=1;entryDx=0;entryDy=0;exitX=0.5;exitY=0;exitDx=0;exitDy=0;" edge="1" parent="1" source="zIOux4XEpl3hAwyCnQDO-105" target="zIOux4XEpl3hAwyCnQDO-101">
          <mxGeometry width="50" height="50" relative="1" as="geometry">
            <mxPoint x="-150" y="190" as="sourcePoint" />
            <mxPoint x="-100" y="140" as="targetPoint" />
          </mxGeometry>
        </mxCell>
        <mxCell id="zIOux4XEpl3hAwyCnQDO-111" value="" style="endArrow=none;html=1;rounded=0;exitX=0.5;exitY=0;exitDx=0;exitDy=0;entryX=1;entryY=1;entryDx=0;entryDy=0;" edge="1" parent="1" source="zIOux4XEpl3hAwyCnQDO-104" target="zIOux4XEpl3hAwyCnQDO-101">
          <mxGeometry width="50" height="50" relative="1" as="geometry">
            <mxPoint x="-60" y="120" as="sourcePoint" />
            <mxPoint x="-10" y="70" as="targetPoint" />
          </mxGeometry>
        </mxCell>
      </root>
    </mxGraphModel>
  </diagram>
</mxfile>
